<svg width="512" height="512" viewBox="0 0 512 512" fill="none" xmlns="http://www.w3.org/2000/svg">
<path d="M31.5077 0C14.1785 0 0 14.1785 0 31.5077V480.492C0 497.822 14.1785 512 31.5077 512H133.908C151.237 512 165.415 497.822 165.415 480.492V165.415H480.492C497.822 165.415 512 151.237 512 133.908V31.5077C512 14.1785 497.822 0 480.492 0H31.5077ZM378.092 346.585C360.763 346.585 346.585 360.763 346.585 378.092V480.492C346.585 497.822 360.763 512 378.092 512H480.492C497.822 512 512 497.822 512 480.492V378.092C512 360.763 497.822 346.585 480.492 346.585H378.092Z" fill="#25C97E"/>
</svg>
